<svg width="15" height="15" viewBox="0 0 15 15" fill="none" xmlns="http://www.w3.org/2000/svg">
<path d="M5 8.75C4.82292 8.75 4.67448 8.6901 4.55469 8.57031C4.4349 8.45052 4.375 8.30208 4.375 8.125C4.375 7.94792 4.4349 7.79948 4.55469 7.67969C4.67448 7.5599 4.82292 7.5 5 7.5C5.17708 7.5 5.32552 7.5599 5.44531 7.67969C5.5651 7.79948 5.625 7.94792 5.625 8.125C5.625 8.30208 5.5651 8.45052 5.44531 8.57031C5.32552 8.6901 5.17708 8.75 5 8.75ZM7.5 8.75C7.32292 8.75 7.17448 8.6901 7.05469 8.57031C6.9349 8.45052 6.875 8.30208 6.875 8.125C6.875 7.94792 6.9349 7.79948 7.05469 7.67969C7.17448 7.5599 7.32292 7.5 7.5 7.5C7.67708 7.5 7.82552 7.5599 7.94531 7.67969C8.0651 7.79948 8.125 7.94792 8.125 8.125C8.125 8.30208 8.0651 8.45052 7.94531 8.57031C7.82552 8.6901 7.67708 8.75 7.5 8.75ZM10 8.75C9.82292 8.75 9.67448 8.6901 9.55469 8.57031C9.4349 8.45052 9.375 8.30208 9.375 8.125C9.375 7.94792 9.4349 7.79948 9.55469 7.67969C9.67448 7.5599 9.82292 7.5 10 7.5C10.1771 7.5 10.3255 7.5599 10.4453 7.67969C10.5651 7.79948 10.625 7.94792 10.625 8.125C10.625 8.30208 10.5651 8.45052 10.4453 8.57031C10.3255 8.6901 10.1771 8.75 10 8.75ZM3.125 13.75C2.78125 13.75 2.48698 13.6276 2.24219 13.3828C1.9974 13.138 1.875 12.8438 1.875 12.5V3.75C1.875 3.40625 1.9974 3.11198 2.24219 2.86719C2.48698 2.6224 2.78125 2.5 3.125 2.5H3.75V1.25H5V2.5H10V1.25H11.25V2.5H11.875C12.2188 2.5 12.513 2.6224 12.7578 2.86719C13.0026 3.11198 13.125 3.40625 13.125 3.75V12.5C13.125 12.8438 13.0026 13.138 12.7578 13.3828C12.513 13.6276 12.2188 13.75 11.875 13.75H3.125ZM3.125 12.5H11.875V6.25H3.125V12.5Z" fill="#D99541"/>
</svg>
