<svg width="19" height="19" viewBox="0 0 19 19" fill="none" xmlns="http://www.w3.org/2000/svg">
<path d="M9.49984 9.49996C8.629 9.49996 7.88352 9.18989 7.26338 8.56975C6.64324 7.94961 6.33317 7.20413 6.33317 6.33329C6.33317 5.46246 6.64324 4.71697 7.26338 4.09683C7.88352 3.4767 8.629 3.16663 9.49984 3.16663C10.3707 3.16663 11.1162 3.4767 11.7363 4.09683C12.3564 4.71697 12.6665 5.46246 12.6665 6.33329C12.6665 7.20413 12.3564 7.94961 11.7363 8.56975C11.1162 9.18989 10.3707 9.49996 9.49984 9.49996ZM3.1665 15.8333V13.6166C3.1665 13.168 3.28196 12.7557 3.51286 12.3796C3.74376 12.0036 4.05053 11.7166 4.43317 11.5187C5.25123 11.1097 6.08248 10.8029 6.92692 10.5984C7.77137 10.3939 8.629 10.2916 9.49984 10.2916C10.3707 10.2916 11.2283 10.3939 12.0728 10.5984C12.9172 10.8029 13.7484 11.1097 14.5665 11.5187C14.9491 11.7166 15.2559 12.0036 15.4868 12.3796C15.7177 12.7557 15.8332 13.168 15.8332 13.6166V15.8333H3.1665ZM4.74984 14.25H14.2498V13.6166C14.2498 13.4715 14.2136 13.3395 14.141 13.2208C14.0684 13.102 13.9728 13.0097 13.854 12.9437C13.1415 12.5875 12.4224 12.3203 11.6967 12.1421C10.971 11.964 10.2387 11.875 9.49984 11.875C8.76095 11.875 8.02866 11.964 7.30296 12.1421C6.57727 12.3203 5.85817 12.5875 5.14567 12.9437C5.02692 13.0097 4.93126 13.102 4.85869 13.2208C4.78612 13.3395 4.74984 13.4715 4.74984 13.6166V14.25ZM9.49984 7.91663C9.93525 7.91663 10.308 7.76159 10.6181 7.45152C10.9281 7.14145 11.0832 6.76871 11.0832 6.33329C11.0832 5.89788 10.9281 5.52513 10.6181 5.21506C10.308 4.90499 9.93525 4.74996 9.49984 4.74996C9.06442 4.74996 8.69168 4.90499 8.38161 5.21506C8.07154 5.52513 7.9165 5.89788 7.9165 6.33329C7.9165 6.76871 8.07154 7.14145 8.38161 7.45152C8.69168 7.76159 9.06442 7.91663 9.49984 7.91663Z" fill="#D99541"/>
</svg>
